<svg width="655" height="74" viewBox="0 0 655 74" fill="none" xmlns="http://www.w3.org/2000/svg">
<mask id="path-1-outside-1_9_563" maskUnits="userSpaceOnUse" x="-3" y="-3" width="661" height="79" fill="black">
<rect fill="white" x="-3" y="-3" width="661" height="79"/>
<path d="M58.4 53.1C58.4 56.1667 57.9667 58.9667 57.1 61.5C56.2333 63.9667 54.7 66.1 52.5 67.9C50.3667 69.6333 47.4 71 43.6 72C39.8 73 34.9667 73.5 29.1 73.5C23.3 73.5 18.5 73 14.7 72C10.9667 71 8 69.6333 5.8 67.9C3.66667 66.1 2.16667 63.9667 1.3 61.5C0.5 58.9667 0.1 56.1667 0.1 53.1V36.9C0.1 35.6333 0.366667 34.7333 0.9 34.2C1.5 33.6 2.43333 33.3 3.7 33.3H18.2C19.4667 33.3 20.3667 33.6 20.9 34.2C21.5 34.7333 21.8 35.6333 21.8 36.9V49.1C21.8 50.4333 22.2 51.5667 23 52.5C23.8667 53.3667 25.8333 53.8 28.9 53.8C31.7667 53.8 33.5667 53.3667 34.3 52.5C35.1 51.5667 35.5 50.4333 35.5 49.1V3.6C35.5 2.33333 35.7667 1.43333 36.3 0.899997C36.9 0.299997 37.8333 -2.86102e-06 39.1 -2.86102e-06H54.8C56.0667 -2.86102e-06 56.9667 0.299997 57.5 0.899997C58.1 1.43333 58.4 2.33333 58.4 3.6V53.1ZM97.8477 21L93.1477 36.2H108.848L104.148 21C103.881 20.4 103.581 19.9667 103.248 19.7C102.981 19.4333 102.648 19.3 102.248 19.3H99.7477C99.3477 19.3 98.981 19.4333 98.6477 19.7C98.381 19.9667 98.1143 20.4 97.8477 21ZM92.1477 68.4C92.1477 69.6667 91.8477 70.6 91.2477 71.2C90.7143 71.7333 89.8143 72 88.5477 72H73.8477C72.581 72 71.6477 71.7333 71.0477 71.2C70.5143 70.6 70.2477 69.6667 70.2477 68.4V42C70.2477 40 70.5477 37.7 71.1477 35.1C71.8143 32.5 72.8143 29.4667 74.1477 26L82.8477 3.3C83.2477 2.16666 83.8477 1.33333 84.6477 0.799999C85.5143 0.266664 86.6143 -2.86102e-06 87.9477 -2.86102e-06H114.848C116.114 -2.86102e-06 117.148 0.266664 117.948 0.799999C118.814 1.33333 119.448 2.16666 119.848 3.3L128.548 26C129.881 29.4667 130.848 32.5 131.448 35.1C132.114 37.7 132.448 40 132.448 42V68.4C132.448 69.6667 132.148 70.6 131.548 71.2C131.014 71.7333 130.114 72 128.848 72H113.748C112.414 72 111.414 71.7333 110.748 71.2C110.148 70.6 109.848 69.6667 109.848 68.4V54.4H92.1477V68.4ZM192.695 72H168.295C159.961 72 153.761 70.3333 149.695 67C145.695 63.6667 143.695 58.5333 143.695 51.6V20.5C143.695 13.5667 145.695 8.43333 149.695 5.1C153.761 1.7 159.961 -2.86102e-06 168.295 -2.86102e-06H192.695C193.961 -2.86102e-06 194.861 0.299997 195.395 0.899997C195.995 1.43333 196.295 2.33333 196.295 3.6V15.7C196.295 16.9667 195.995 17.9 195.395 18.5C194.861 19.0333 193.961 19.3 192.695 19.3H172.595C170.528 19.3 168.995 19.7333 167.995 20.6C166.995 21.4 166.495 22.6333 166.495 24.3V48.1C166.495 49.7667 166.995 51 167.995 51.8C168.995 52.5333 170.528 52.9 172.595 52.9H192.695C193.961 52.9 194.861 53.2 195.395 53.8C195.995 54.3333 196.295 55.2333 196.295 56.5V68.4C196.295 69.6667 195.995 70.6 195.395 71.2C194.861 71.7333 193.961 72 192.695 72ZM226.688 72H211.188C209.921 72 208.988 71.7333 208.388 71.2C207.854 70.6 207.588 69.6667 207.588 68.4V3.6C207.588 2.33333 207.854 1.43333 208.388 0.899997C208.988 0.299997 209.921 -2.86102e-06 211.188 -2.86102e-06H226.688C227.954 -2.86102e-06 228.854 0.299997 229.388 0.899997C229.988 1.43333 230.288 2.33333 230.288 3.6V26.6H234.288L244.588 3.3C245.054 2.1 245.688 1.26666 246.488 0.799999C247.288 0.266664 248.321 -2.86102e-06 249.588 -2.86102e-06H264.988C266.121 -2.86102e-06 266.888 0.299997 267.288 0.899997C267.688 1.43333 267.654 2.23333 267.188 3.3L256.988 26.6C260.721 26.8 263.688 28.1333 265.888 30.6C268.154 33 269.288 36.2 269.288 40.2V68.4C269.288 69.6667 268.988 70.6 268.388 71.2C267.854 71.7333 266.954 72 265.688 72H250.288C249.021 72 248.088 71.7333 247.488 71.2C246.954 70.6 246.688 69.6667 246.688 68.4V48.9C246.688 47.8333 246.421 47 245.888 46.4C245.354 45.8 244.554 45.5 243.488 45.5H230.288V68.4C230.288 69.6667 229.988 70.6 229.388 71.2C228.854 71.7333 227.954 72 226.688 72ZM363.173 72H331.673C323.34 72 317.14 70.3333 313.073 67C309.073 63.6667 307.073 58.5333 307.073 51.6V20.4C307.073 13.4667 309.073 8.33333 313.073 5C317.14 1.66666 323.34 -2.86102e-06 331.673 -2.86102e-06H356.673C357.94 -2.86102e-06 358.84 0.299997 359.373 0.899997C359.973 1.43333 360.273 2.33333 360.273 3.6V15.7C360.273 16.9667 359.973 17.9 359.373 18.5C358.84 19.0333 357.94 19.3 356.673 19.3H335.873C333.807 19.3 332.273 19.7333 331.273 20.6C330.273 21.4 329.773 22.6333 329.773 24.3V48.2C329.773 49.8667 330.14 51.1 330.873 51.9C331.673 52.7 332.84 53.1 334.373 53.1H344.073V37.5C344.073 36.2333 344.34 35.3333 344.873 34.8C345.473 34.2 346.407 33.9 347.673 33.9H363.173C364.44 33.9 365.34 34.2 365.873 34.8C366.473 35.3333 366.773 36.2333 366.773 37.5V68.4C366.773 69.6667 366.473 70.6 365.873 71.2C365.34 71.7333 364.44 72 363.173 72ZM401.574 18V30.8H409.074C410.808 30.8 411.974 30.3667 412.574 29.5C413.174 28.5667 413.474 27.4333 413.474 26.1V22.7C413.474 21.3667 413.174 20.2667 412.574 19.4C411.974 18.4667 410.808 18 409.074 18H401.574ZM397.974 72H382.574C381.308 72 380.374 71.7333 379.774 71.2C379.241 70.6 378.974 69.6667 378.974 68.4V3.6C378.974 2.33333 379.241 1.43333 379.774 0.899997C380.374 0.299997 381.308 -2.86102e-06 382.574 -2.86102e-06H415.874C423.341 -2.86102e-06 428.474 1.56666 431.274 4.7C434.141 7.76666 435.574 11.7667 435.574 16.7V21.3C435.574 24.1 435.141 26.5 434.274 28.5C433.474 30.4333 432.041 31.8333 429.974 32.7C433.574 33.1 436.474 34.5667 438.674 37.1C440.941 39.6333 442.074 43 442.074 47.2V68.4C442.074 69.6667 441.774 70.6 441.174 71.2C440.641 71.7333 439.741 72 438.474 72H422.974C421.708 72 420.774 71.7333 420.174 71.2C419.641 70.6 419.374 69.6667 419.374 68.4V53.1C419.374 51.6333 419.074 50.5667 418.474 49.9C417.941 49.1667 416.974 48.8 415.574 48.8H401.574V68.4C401.574 69.6667 401.274 70.6 400.674 71.2C400.141 71.7333 399.241 72 397.974 72ZM479.391 21L474.691 36.2H490.391L485.691 21C485.424 20.4 485.124 19.9667 484.791 19.7C484.524 19.4333 484.191 19.3 483.791 19.3H481.291C480.891 19.3 480.524 19.4333 480.191 19.7C479.924 19.9667 479.657 20.4 479.391 21ZM473.691 68.4C473.691 69.6667 473.391 70.6 472.791 71.2C472.257 71.7333 471.357 72 470.091 72H455.391C454.124 72 453.191 71.7333 452.591 71.2C452.057 70.6 451.791 69.6667 451.791 68.4V42C451.791 40 452.091 37.7 452.691 35.1C453.357 32.5 454.357 29.4667 455.691 26L464.391 3.3C464.791 2.16666 465.391 1.33333 466.191 0.799999C467.057 0.266664 468.157 -2.86102e-06 469.491 -2.86102e-06H496.391C497.657 -2.86102e-06 498.691 0.266664 499.491 0.799999C500.357 1.33333 500.991 2.16666 501.391 3.3L510.091 26C511.424 29.4667 512.391 32.5 512.991 35.1C513.657 37.7 513.991 40 513.991 42V68.4C513.991 69.6667 513.691 70.6 513.091 71.2C512.557 71.7333 511.657 72 510.391 72H495.291C493.957 72 492.957 71.7333 492.291 71.2C491.691 70.6 491.391 69.6667 491.391 68.4V54.4H473.691V68.4ZM587.638 53.1C587.638 56.1667 587.171 58.9667 586.238 61.5C585.371 63.9667 583.771 66.1 581.438 67.9C579.171 69.6333 576.038 71 572.038 72C568.038 73 562.938 73.5 556.738 73.5C550.538 73.5 545.438 73 541.438 72C537.438 71 534.271 69.6333 531.938 67.9C529.671 66.1 528.071 63.9667 527.138 61.5C526.271 58.9667 525.838 56.1667 525.838 53.1V3.6C525.838 2.33333 526.104 1.43333 526.638 0.899997C527.238 0.299997 528.171 -2.86102e-06 529.438 -2.86102e-06H545.137C546.404 -2.86102e-06 547.304 0.299997 547.838 0.899997C548.438 1.43333 548.738 2.33333 548.738 3.6V49.2C548.738 50.5333 549.238 51.6667 550.238 52.6C551.238 53.4667 553.471 53.9 556.938 53.9C560.471 53.9 562.738 53.4667 563.738 52.6C564.738 51.6667 565.238 50.5333 565.238 49.2V3.6C565.238 2.33333 565.504 1.43333 566.038 0.899997C566.638 0.299997 567.571 -2.86102e-06 568.838 -2.86102e-06H584.038C585.304 -2.86102e-06 586.204 0.299997 586.738 0.899997C587.338 1.43333 587.638 2.33333 587.638 3.6V53.1ZM650.947 72H604.547C603.28 72 602.347 71.7333 601.747 71.2C601.214 70.6 600.947 69.6667 600.947 68.4V3.6C600.947 2.33333 601.214 1.43333 601.747 0.899997C602.347 0.299997 603.28 -2.86102e-06 604.547 -2.86102e-06H650.947C652.214 -2.86102e-06 653.114 0.299997 653.647 0.899997C654.247 1.43333 654.547 2.33333 654.547 3.6V15.3C654.547 16.5667 654.247 17.5 653.647 18.1C653.114 18.6333 652.214 18.9 650.947 18.9H623.347V26.6H642.847C644.114 26.6 645.014 26.9 645.547 27.5C646.147 28.0333 646.447 28.9333 646.447 30.2V40.9C646.447 42.1667 646.147 43.1 645.547 43.7C645.014 44.2333 644.114 44.5 642.847 44.5H623.347V53.1H650.947C652.214 53.1 653.114 53.4 653.647 54C654.247 54.5333 654.547 55.4333 654.547 56.7V68.4C654.547 69.6667 654.247 70.6 653.647 71.2C653.114 71.7333 652.214 72 650.947 72Z"/>
</mask>
<path d="M58.4 53.1C58.4 56.1667 57.9667 58.9667 57.1 61.5C56.2333 63.9667 54.7 66.1 52.5 67.9C50.3667 69.6333 47.4 71 43.6 72C39.8 73 34.9667 73.5 29.1 73.5C23.3 73.5 18.5 73 14.7 72C10.9667 71 8 69.6333 5.8 67.9C3.66667 66.1 2.16667 63.9667 1.3 61.5C0.5 58.9667 0.1 56.1667 0.1 53.1V36.9C0.1 35.6333 0.366667 34.7333 0.9 34.2C1.5 33.6 2.43333 33.3 3.7 33.3H18.2C19.4667 33.3 20.3667 33.6 20.9 34.2C21.5 34.7333 21.8 35.6333 21.8 36.9V49.1C21.8 50.4333 22.2 51.5667 23 52.5C23.8667 53.3667 25.8333 53.8 28.9 53.8C31.7667 53.8 33.5667 53.3667 34.3 52.5C35.1 51.5667 35.5 50.4333 35.5 49.1V3.6C35.5 2.33333 35.7667 1.43333 36.3 0.899997C36.9 0.299997 37.8333 -2.86102e-06 39.1 -2.86102e-06H54.8C56.0667 -2.86102e-06 56.9667 0.299997 57.5 0.899997C58.1 1.43333 58.4 2.33333 58.4 3.6V53.1ZM97.8477 21L93.1477 36.2H108.848L104.148 21C103.881 20.4 103.581 19.9667 103.248 19.7C102.981 19.4333 102.648 19.3 102.248 19.3H99.7477C99.3477 19.3 98.981 19.4333 98.6477 19.7C98.381 19.9667 98.1143 20.4 97.8477 21ZM92.1477 68.4C92.1477 69.6667 91.8477 70.6 91.2477 71.2C90.7143 71.7333 89.8143 72 88.5477 72H73.8477C72.581 72 71.6477 71.7333 71.0477 71.2C70.5143 70.6 70.2477 69.6667 70.2477 68.4V42C70.2477 40 70.5477 37.7 71.1477 35.1C71.8143 32.5 72.8143 29.4667 74.1477 26L82.8477 3.3C83.2477 2.16666 83.8477 1.33333 84.6477 0.799999C85.5143 0.266664 86.6143 -2.86102e-06 87.9477 -2.86102e-06H114.848C116.114 -2.86102e-06 117.148 0.266664 117.948 0.799999C118.814 1.33333 119.448 2.16666 119.848 3.3L128.548 26C129.881 29.4667 130.848 32.5 131.448 35.1C132.114 37.7 132.448 40 132.448 42V68.4C132.448 69.6667 132.148 70.6 131.548 71.2C131.014 71.7333 130.114 72 128.848 72H113.748C112.414 72 111.414 71.7333 110.748 71.2C110.148 70.6 109.848 69.6667 109.848 68.4V54.4H92.1477V68.4ZM192.695 72H168.295C159.961 72 153.761 70.3333 149.695 67C145.695 63.6667 143.695 58.5333 143.695 51.6V20.5C143.695 13.5667 145.695 8.43333 149.695 5.1C153.761 1.7 159.961 -2.86102e-06 168.295 -2.86102e-06H192.695C193.961 -2.86102e-06 194.861 0.299997 195.395 0.899997C195.995 1.43333 196.295 2.33333 196.295 3.6V15.7C196.295 16.9667 195.995 17.9 195.395 18.5C194.861 19.0333 193.961 19.3 192.695 19.3H172.595C170.528 19.3 168.995 19.7333 167.995 20.6C166.995 21.4 166.495 22.6333 166.495 24.3V48.1C166.495 49.7667 166.995 51 167.995 51.8C168.995 52.5333 170.528 52.9 172.595 52.9H192.695C193.961 52.9 194.861 53.2 195.395 53.8C195.995 54.3333 196.295 55.2333 196.295 56.5V68.4C196.295 69.6667 195.995 70.6 195.395 71.2C194.861 71.7333 193.961 72 192.695 72ZM226.688 72H211.188C209.921 72 208.988 71.7333 208.388 71.2C207.854 70.6 207.588 69.6667 207.588 68.4V3.6C207.588 2.33333 207.854 1.43333 208.388 0.899997C208.988 0.299997 209.921 -2.86102e-06 211.188 -2.86102e-06H226.688C227.954 -2.86102e-06 228.854 0.299997 229.388 0.899997C229.988 1.43333 230.288 2.33333 230.288 3.6V26.6H234.288L244.588 3.3C245.054 2.1 245.688 1.26666 246.488 0.799999C247.288 0.266664 248.321 -2.86102e-06 249.588 -2.86102e-06H264.988C266.121 -2.86102e-06 266.888 0.299997 267.288 0.899997C267.688 1.43333 267.654 2.23333 267.188 3.3L256.988 26.6C260.721 26.8 263.688 28.1333 265.888 30.6C268.154 33 269.288 36.2 269.288 40.2V68.4C269.288 69.6667 268.988 70.6 268.388 71.2C267.854 71.7333 266.954 72 265.688 72H250.288C249.021 72 248.088 71.7333 247.488 71.2C246.954 70.6 246.688 69.6667 246.688 68.4V48.9C246.688 47.8333 246.421 47 245.888 46.4C245.354 45.8 244.554 45.5 243.488 45.5H230.288V68.4C230.288 69.6667 229.988 70.6 229.388 71.2C228.854 71.7333 227.954 72 226.688 72ZM363.173 72H331.673C323.34 72 317.14 70.3333 313.073 67C309.073 63.6667 307.073 58.5333 307.073 51.6V20.4C307.073 13.4667 309.073 8.33333 313.073 5C317.14 1.66666 323.34 -2.86102e-06 331.673 -2.86102e-06H356.673C357.94 -2.86102e-06 358.84 0.299997 359.373 0.899997C359.973 1.43333 360.273 2.33333 360.273 3.6V15.7C360.273 16.9667 359.973 17.9 359.373 18.5C358.84 19.0333 357.94 19.3 356.673 19.3H335.873C333.807 19.3 332.273 19.7333 331.273 20.6C330.273 21.4 329.773 22.6333 329.773 24.3V48.2C329.773 49.8667 330.14 51.1 330.873 51.9C331.673 52.7 332.84 53.1 334.373 53.1H344.073V37.5C344.073 36.2333 344.34 35.3333 344.873 34.8C345.473 34.2 346.407 33.9 347.673 33.9H363.173C364.44 33.9 365.34 34.2 365.873 34.8C366.473 35.3333 366.773 36.2333 366.773 37.5V68.4C366.773 69.6667 366.473 70.6 365.873 71.2C365.34 71.7333 364.44 72 363.173 72ZM401.574 18V30.8H409.074C410.808 30.8 411.974 30.3667 412.574 29.5C413.174 28.5667 413.474 27.4333 413.474 26.1V22.7C413.474 21.3667 413.174 20.2667 412.574 19.4C411.974 18.4667 410.808 18 409.074 18H401.574ZM397.974 72H382.574C381.308 72 380.374 71.7333 379.774 71.2C379.241 70.6 378.974 69.6667 378.974 68.4V3.6C378.974 2.33333 379.241 1.43333 379.774 0.899997C380.374 0.299997 381.308 -2.86102e-06 382.574 -2.86102e-06H415.874C423.341 -2.86102e-06 428.474 1.56666 431.274 4.7C434.141 7.76666 435.574 11.7667 435.574 16.7V21.3C435.574 24.1 435.141 26.5 434.274 28.5C433.474 30.4333 432.041 31.8333 429.974 32.7C433.574 33.1 436.474 34.5667 438.674 37.1C440.941 39.6333 442.074 43 442.074 47.2V68.4C442.074 69.6667 441.774 70.6 441.174 71.2C440.641 71.7333 439.741 72 438.474 72H422.974C421.708 72 420.774 71.7333 420.174 71.2C419.641 70.6 419.374 69.6667 419.374 68.4V53.1C419.374 51.6333 419.074 50.5667 418.474 49.9C417.941 49.1667 416.974 48.8 415.574 48.8H401.574V68.4C401.574 69.6667 401.274 70.6 400.674 71.2C400.141 71.7333 399.241 72 397.974 72ZM479.391 21L474.691 36.2H490.391L485.691 21C485.424 20.4 485.124 19.9667 484.791 19.7C484.524 19.4333 484.191 19.3 483.791 19.3H481.291C480.891 19.3 480.524 19.4333 480.191 19.7C479.924 19.9667 479.657 20.4 479.391 21ZM473.691 68.4C473.691 69.6667 473.391 70.6 472.791 71.2C472.257 71.7333 471.357 72 470.091 72H455.391C454.124 72 453.191 71.7333 452.591 71.2C452.057 70.6 451.791 69.6667 451.791 68.4V42C451.791 40 452.091 37.7 452.691 35.1C453.357 32.5 454.357 29.4667 455.691 26L464.391 3.3C464.791 2.16666 465.391 1.33333 466.191 0.799999C467.057 0.266664 468.157 -2.86102e-06 469.491 -2.86102e-06H496.391C497.657 -2.86102e-06 498.691 0.266664 499.491 0.799999C500.357 1.33333 500.991 2.16666 501.391 3.3L510.091 26C511.424 29.4667 512.391 32.5 512.991 35.1C513.657 37.7 513.991 40 513.991 42V68.4C513.991 69.6667 513.691 70.6 513.091 71.2C512.557 71.7333 511.657 72 510.391 72H495.291C493.957 72 492.957 71.7333 492.291 71.2C491.691 70.6 491.391 69.6667 491.391 68.4V54.4H473.691V68.4ZM587.638 53.1C587.638 56.1667 587.171 58.9667 586.238 61.5C585.371 63.9667 583.771 66.1 581.438 67.9C579.171 69.6333 576.038 71 572.038 72C568.038 73 562.938 73.5 556.738 73.5C550.538 73.5 545.438 73 541.438 72C537.438 71 534.271 69.6333 531.938 67.9C529.671 66.1 528.071 63.9667 527.138 61.5C526.271 58.9667 525.838 56.1667 525.838 53.1V3.6C525.838 2.33333 526.104 1.43333 526.638 0.899997C527.238 0.299997 528.171 -2.86102e-06 529.438 -2.86102e-06H545.137C546.404 -2.86102e-06 547.304 0.299997 547.838 0.899997C548.438 1.43333 548.738 2.33333 548.738 3.6V49.2C548.738 50.5333 549.238 51.6667 550.238 52.6C551.238 53.4667 553.471 53.9 556.938 53.9C560.471 53.9 562.738 53.4667 563.738 52.6C564.738 51.6667 565.238 50.5333 565.238 49.2V3.6C565.238 2.33333 565.504 1.43333 566.038 0.899997C566.638 0.299997 567.571 -2.86102e-06 568.838 -2.86102e-06H584.038C585.304 -2.86102e-06 586.204 0.299997 586.738 0.899997C587.338 1.43333 587.638 2.33333 587.638 3.6V53.1ZM650.947 72H604.547C603.28 72 602.347 71.7333 601.747 71.2C601.214 70.6 600.947 69.6667 600.947 68.4V3.6C600.947 2.33333 601.214 1.43333 601.747 0.899997C602.347 0.299997 603.28 -2.86102e-06 604.547 -2.86102e-06H650.947C652.214 -2.86102e-06 653.114 0.299997 653.647 0.899997C654.247 1.43333 654.547 2.33333 654.547 3.6V15.3C654.547 16.5667 654.247 17.5 653.647 18.1C653.114 18.6333 652.214 18.9 650.947 18.9H623.347V26.6H642.847C644.114 26.6 645.014 26.9 645.547 27.5C646.147 28.0333 646.447 28.9333 646.447 30.2V40.9C646.447 42.1667 646.147 43.1 645.547 43.7C645.014 44.2333 644.114 44.5 642.847 44.5H623.347V53.1H650.947C652.214 53.1 653.114 53.4 653.647 54C654.247 54.5333 654.547 55.4333 654.547 56.7V68.4C654.547 69.6667 654.247 70.6 653.647 71.2C653.114 71.7333 652.214 72 650.947 72Z" fill="#E0B107"/>
<path d="M57.1 61.5L59.4587 62.3287L59.4621 62.319L59.4654 62.3092L57.1 61.5ZM52.5 67.9L54.0765 69.8403L54.0831 69.8349L52.5 67.9ZM43.6 72L42.9638 69.5823L42.9638 69.5823L43.6 72ZM14.7 72L14.0532 74.4149L14.0638 74.4177L14.7 72ZM5.8 67.9L4.18782 69.8107L4.21988 69.8378L4.25282 69.8637L5.8 67.9ZM1.3 61.5L-1.08396 62.2528L-1.07191 62.291L-1.05865 62.3287L1.3 61.5ZM0.9 34.2L-0.867767 32.4322L-0.867768 32.4322L0.9 34.2ZM20.9 34.2L19.0315 35.8609L19.1292 35.9708L19.2391 36.0685L20.9 34.2ZM23 52.5L21.1019 54.127L21.1643 54.1999L21.2322 54.2678L23 52.5ZM34.3 52.5L32.4019 50.873L32.3967 50.8791L32.3915 50.8851L34.3 52.5ZM36.3 0.899997L38.0678 2.66776L36.3 0.899997ZM57.5 0.899997L55.6315 2.5609L55.7292 2.67082L55.8391 2.76852L57.5 0.899997ZM55.9 53.1C55.9 55.9307 55.5002 58.4527 54.7346 60.6908L59.4654 62.3092C60.4331 59.4806 60.9 56.4026 60.9 53.1H55.9ZM54.7413 60.6713C54.04 62.6675 52.7939 64.4294 50.9169 65.9651L54.0831 69.8349C56.6062 67.7706 58.4267 65.2658 59.4587 62.3287L54.7413 60.6713ZM50.9235 65.9597C49.1581 67.3942 46.5568 68.6368 42.9638 69.5823L44.2362 74.4177C48.2432 73.3632 51.5753 71.8725 54.0765 69.8403L50.9235 65.9597ZM42.9638 69.5823C39.4464 70.508 34.8464 71 29.1 71V76C35.0869 76 40.1537 75.492 44.2362 74.4177L42.9638 69.5823ZM29.1 71C23.4231 71 18.8555 70.5084 15.3362 69.5823L14.0638 74.4177C18.1445 75.4916 23.1769 76 29.1 76V71ZM15.3468 69.5851C11.8247 68.6417 9.20007 67.3961 7.34718 65.9363L4.25282 69.8637C6.79993 71.8705 10.1087 73.3583 14.0532 74.4149L15.3468 69.5851ZM7.41218 65.9893C5.59582 64.4567 4.36743 62.6886 3.65865 60.6713L-1.05865 62.3287C-0.034097 65.2448 1.73751 67.7433 4.18782 69.8107L7.41218 65.9893ZM3.68396 60.7472C2.97168 58.4916 2.6 55.9498 2.6 53.1H-2.4C-2.4 56.3835 -1.97168 59.4417 -1.08396 62.2528L3.68396 60.7472ZM2.6 53.1V36.9H-2.4V53.1H2.6ZM2.6 36.9C2.6 36.4291 2.65108 36.1402 2.697 35.9852C2.74047 35.8385 2.75927 35.8763 2.66777 35.9678L-0.867768 32.4322C-2.10273 33.6672 -2.4 35.3948 -2.4 36.9H2.6ZM2.66777 35.9678C2.61127 36.0243 2.77287 35.8 3.7 35.8V30.8C2.09379 30.8 0.388734 31.1757 -0.867767 32.4322L2.66777 35.9678ZM3.7 35.8H18.2V30.8H3.7V35.8ZM18.2 35.8C18.6489 35.8 18.9086 35.8548 19.0344 35.8967C19.145 35.9336 19.1046 35.9432 19.0315 35.8609L22.7685 32.5391C21.5448 31.1624 19.7739 30.8 18.2 30.8V35.8ZM19.2391 36.0685C19.1568 35.9954 19.1664 35.955 19.2033 36.0656C19.2452 36.1914 19.3 36.4511 19.3 36.9H24.3C24.3 35.3261 23.9376 33.5552 22.5609 32.3315L19.2391 36.0685ZM19.3 36.9V49.1H24.3V36.9H19.3ZM19.3 49.1C19.3 50.9756 19.8794 52.7008 21.1019 54.127L24.8981 50.873C24.5206 50.4325 24.3 49.891 24.3 49.1H19.3ZM21.2322 54.2678C22.1558 55.1913 23.4076 55.6566 24.5871 55.9164C25.8133 56.1866 27.2692 56.3 28.9 56.3V51.3C27.4641 51.3 26.4034 51.1967 25.6629 51.0336C24.8757 50.8601 24.7109 50.6753 24.7678 50.7322L21.2322 54.2678ZM28.9 56.3C30.4355 56.3 31.8192 56.1863 32.9851 55.9056C34.1032 55.6364 35.3426 55.1381 36.2085 54.1149L32.3915 50.8851C32.524 50.7286 32.4968 50.8803 31.8149 51.0444C31.1808 51.1971 30.2311 51.3 28.9 51.3V56.3ZM36.1981 54.127C37.4206 52.7008 38 50.9756 38 49.1H33C33 49.891 32.7794 50.4325 32.4019 50.873L36.1981 54.127ZM38 49.1V3.6H33V49.1H38ZM38 3.6C38 3.12909 38.0511 2.8402 38.097 2.68522C38.1405 2.53851 38.1593 2.57627 38.0678 2.66776L34.5322 -0.867769C33.2973 0.367196 33 2.0948 33 3.6H38ZM38.0678 2.66776C38.0113 2.72427 38.1729 2.5 39.1 2.5V-2.5C37.4938 -2.5 35.7887 -2.12427 34.5322 -0.867769L38.0678 2.66776ZM39.1 2.5H54.8V-2.5H39.1V2.5ZM54.8 2.5C55.2489 2.5 55.5086 2.55476 55.6344 2.59671C55.745 2.63356 55.7046 2.64317 55.6315 2.5609L59.3685 -0.760907C58.1448 -2.13759 56.3739 -2.5 54.8 -2.5V2.5ZM55.8391 2.76852C55.7568 2.6954 55.7664 2.65502 55.8033 2.76557C55.8452 2.8914 55.9 3.15109 55.9 3.6H60.9C60.9 2.02613 60.5376 0.255188 59.1609 -0.968524L55.8391 2.76852ZM55.9 3.6V53.1H60.9V3.6H55.9ZM97.8477 21L95.5631 19.9846L95.503 20.12L95.4592 20.2615L97.8477 21ZM93.1477 36.2L90.7592 35.4615L89.7578 38.7H93.1477V36.2ZM108.848 36.2V38.7H112.237L111.236 35.4615L108.848 36.2ZM104.148 21L106.536 20.2615L106.492 20.12L106.432 19.9847L104.148 21ZM103.248 19.7L101.48 21.4678L101.578 21.5657L101.686 21.6522L103.248 19.7ZM98.6477 19.7L97.0859 17.7478L96.9778 17.8343L96.8799 17.9322L98.6477 19.7ZM91.2477 71.2L89.4799 69.4322L89.4799 69.4322L91.2477 71.2ZM71.0477 71.2L69.1791 72.8609L69.2768 72.9708L69.3867 73.0685L71.0477 71.2ZM71.1477 35.1L68.726 34.4791L68.7185 34.5084L68.7117 34.5378L71.1477 35.1ZM74.1477 26L76.481 26.8974L76.4821 26.8947L74.1477 26ZM82.8477 3.3L85.1821 4.19469L85.194 4.16352L85.2051 4.13205L82.8477 3.3ZM84.6477 0.799999L83.3374 -1.32915L83.2987 -1.30533L83.2609 -1.28013L84.6477 0.799999ZM117.948 0.799999L116.561 2.88012L116.599 2.90533L116.637 2.92915L117.948 0.799999ZM119.848 3.3L117.49 4.13204L117.501 4.16352L117.513 4.19469L119.848 3.3ZM128.548 26L126.213 26.8947L126.214 26.8974L128.548 26ZM131.448 35.1L129.012 35.6621L129.018 35.6916L129.026 35.7209L131.448 35.1ZM131.548 71.2L133.315 72.9678L133.315 72.9678L131.548 71.2ZM110.748 71.2L108.98 72.9678L109.078 73.0657L109.186 73.1522L110.748 71.2ZM109.848 54.4H112.348V51.9H109.848V54.4ZM92.1477 54.4V51.9H89.6477V54.4H92.1477ZM95.4592 20.2615L90.7592 35.4615L95.5361 36.9385L100.236 21.7385L95.4592 20.2615ZM93.1477 38.7H108.848V33.7H93.1477V38.7ZM111.236 35.4615L106.536 20.2615L101.759 21.7385L106.459 36.9385L111.236 35.4615ZM106.432 19.9847C106.082 19.1978 105.579 18.3632 104.809 17.7478L101.686 21.6522C101.625 21.6034 101.624 21.586 101.667 21.648C101.71 21.7095 101.778 21.8249 101.863 22.0153L106.432 19.9847ZM105.015 17.9322C104.249 17.1661 103.266 16.8 102.248 16.8V21.8C102.166 21.8 102.03 21.7854 101.869 21.7212C101.706 21.6558 101.574 21.5615 101.48 21.4678L105.015 17.9322ZM102.248 16.8H99.7477V21.8H102.248V16.8ZM99.7477 16.8C98.7404 16.8 97.8306 17.1521 97.0859 17.7478L100.209 21.6522C100.183 21.673 100.122 21.7148 100.027 21.7495C99.9296 21.7849 99.8316 21.8 99.7477 21.8V16.8ZM96.8799 17.9322C96.2923 18.5198 95.8761 19.2806 95.5631 19.9846L100.132 22.0153C100.233 21.7895 100.316 21.6346 100.377 21.5352C100.441 21.4311 100.458 21.4249 100.415 21.4678L96.8799 17.9322ZM89.6477 68.4C89.6477 69.3271 89.4234 69.4887 89.4799 69.4322L93.0154 72.9678C94.2719 71.7113 94.6477 70.0062 94.6477 68.4H89.6477ZM89.4799 69.4322C89.5714 69.3407 89.6091 69.3595 89.4624 69.403C89.3075 69.4489 89.0186 69.5 88.5477 69.5V74.5C90.0529 74.5 91.7805 74.2027 93.0154 72.9678L89.4799 69.4322ZM88.5477 69.5H73.8477V74.5H88.5477V69.5ZM73.8477 69.5C73.3801 69.5 73.0718 69.4497 72.8845 69.3962C72.7042 69.3447 72.6756 69.3022 72.7086 69.3315L69.3867 73.0685C70.6454 74.1873 72.3054 74.5 73.8477 74.5V69.5ZM72.9162 69.5391C72.9455 69.5721 72.903 69.5434 72.8515 69.3632C72.7979 69.1759 72.7477 68.8675 72.7477 68.4H67.7477C67.7477 69.9422 68.0603 71.6023 69.1791 72.8609L72.9162 69.5391ZM72.7477 68.4V42H67.7477V68.4H72.7477ZM72.7477 42C72.7477 40.24 73.013 38.1349 73.5836 35.6621L68.7117 34.5378C68.0823 37.2651 67.7477 39.76 67.7477 42H72.7477ZM73.5693 35.7209C74.2048 33.2426 75.1703 30.3053 76.481 26.8974L71.8143 25.1026C70.4583 28.6281 69.4239 31.7574 68.726 34.4791L73.5693 35.7209ZM76.4821 26.8947L85.1821 4.19469L80.5132 2.40531L71.8132 25.1053L76.4821 26.8947ZM85.2051 4.13205C85.4708 3.37936 85.7867 3.04528 86.0344 2.88013L83.2609 -1.28013C81.9086 -0.378618 81.0245 0.953967 80.4902 2.46795L85.2051 4.13205ZM85.9579 2.92914C86.326 2.70262 86.9366 2.5 87.9477 2.5V-2.5C86.2921 -2.5 84.7026 -2.16929 83.3374 -1.32915L85.9579 2.92914ZM87.9477 2.5H114.848V-2.5H87.9477V2.5ZM114.848 2.5C115.775 2.5 116.283 2.69514 116.561 2.88012L119.334 -1.28012C118.012 -2.16181 116.454 -2.5 114.848 -2.5V2.5ZM116.637 2.92915C116.932 3.11055 117.245 3.43627 117.49 4.13204L122.205 2.46795C121.651 0.897055 120.696 -0.443888 119.258 -1.32915L116.637 2.92915ZM117.513 4.19469L126.213 26.8947L130.882 25.1053L122.182 2.40531L117.513 4.19469ZM126.214 26.8974C127.521 30.2938 128.446 33.2106 129.012 35.6621L133.884 34.5378C133.249 31.7894 132.241 28.6396 130.881 25.1026L126.214 26.8974ZM129.026 35.7209C129.657 38.1824 129.948 40.2668 129.948 42H134.948C134.948 39.7332 134.572 37.2176 133.869 34.4791L129.026 35.7209ZM129.948 42V68.4H134.948V42H129.948ZM129.948 68.4C129.948 69.3271 129.723 69.4887 129.78 69.4322L133.315 72.9678C134.572 71.7113 134.948 70.0062 134.948 68.4H129.948ZM129.78 69.4322C129.871 69.3407 129.909 69.3595 129.762 69.403C129.607 69.4489 129.319 69.5 128.848 69.5V74.5C130.353 74.5 132.08 74.2027 133.315 72.9678L129.78 69.4322ZM128.848 69.5H113.748V74.5H128.848V69.5ZM113.748 69.5C112.681 69.5 112.344 69.2758 112.309 69.2478L109.186 73.1522C110.484 74.1908 112.147 74.5 113.748 74.5V69.5ZM112.515 69.4322C112.572 69.4887 112.348 69.3271 112.348 68.4H107.348C107.348 70.0062 107.723 71.7113 108.98 72.9678L112.515 69.4322ZM112.348 68.4V54.4H107.348V68.4H112.348ZM109.848 51.9H92.1477V56.9H109.848V51.9ZM89.6477 54.4V68.4H94.6477V54.4H89.6477ZM149.695 67L148.094 68.9206L148.102 68.927L148.11 68.9335L149.695 67ZM149.695 5.1L151.295 7.02055L151.298 7.01797L149.695 5.1ZM195.395 0.899997L193.526 2.56091L193.624 2.67082L193.734 2.76852L195.395 0.899997ZM167.995 20.6L169.556 22.5522L169.595 22.5214L169.632 22.4892L167.995 20.6ZM167.995 51.8L166.433 53.7522L166.474 53.785L166.516 53.816L167.995 51.8ZM195.395 53.8L193.526 55.4609L193.624 55.5708L193.734 55.6685L195.395 53.8ZM195.395 71.2L197.162 72.9678L197.162 72.9678L195.395 71.2ZM192.695 69.5H168.295V74.5H192.695V69.5ZM168.295 69.5C160.221 69.5 154.703 67.8731 151.279 65.0665L148.11 68.9335C152.819 72.7936 159.701 74.5 168.295 74.5V69.5ZM151.295 65.0794C148.04 62.3666 146.195 58.0534 146.195 51.6H141.195C141.195 59.0133 143.35 64.9667 148.094 68.9206L151.295 65.0794ZM146.195 51.6V20.5H141.195V51.6H146.195ZM146.195 20.5C146.195 14.0466 148.04 9.73341 151.295 7.02055L148.094 3.17944C143.35 7.13325 141.195 13.0867 141.195 20.5H146.195ZM151.298 7.01797C154.72 4.1567 160.23 2.5 168.295 2.5V-2.5C159.692 -2.5 152.802 -0.756705 148.091 3.18202L151.298 7.01797ZM168.295 2.5H192.695V-2.5H168.295V2.5ZM192.695 2.5C193.143 2.5 193.403 2.55476 193.529 2.59671C193.64 2.63356 193.599 2.64317 193.526 2.56091L197.263 -0.760914C196.039 -2.13759 194.268 -2.5 192.695 -2.5V2.5ZM193.734 2.76852C193.651 2.6954 193.661 2.65502 193.698 2.76557C193.74 2.8914 193.795 3.15109 193.795 3.6H198.795C198.795 2.02613 198.432 0.255188 197.055 -0.968524L193.734 2.76852ZM193.795 3.6V15.7H198.795V3.6H193.795ZM193.795 15.7C193.795 16.6271 193.57 16.7887 193.627 16.7322L197.162 20.2678C198.419 19.0113 198.795 17.3062 198.795 15.7H193.795ZM193.627 16.7322C193.718 16.6407 193.756 16.6595 193.609 16.703C193.454 16.7489 193.165 16.8 192.695 16.8V21.8C194.2 21.8 195.927 21.5027 197.162 20.2678L193.627 16.7322ZM192.695 16.8H172.595V21.8H192.695V16.8ZM172.595 16.8C170.248 16.8 168.007 17.281 166.357 18.7108L169.632 22.4892C169.982 22.1857 170.808 21.8 172.595 21.8V16.8ZM166.433 18.6478C164.67 20.0579 163.995 22.1214 163.995 24.3H168.995C168.995 23.1452 169.319 22.7421 169.556 22.5522L166.433 18.6478ZM163.995 24.3V48.1H168.995V24.3H163.995ZM163.995 48.1C163.995 50.2786 164.67 52.3421 166.433 53.7522L169.556 49.8478C169.319 49.6579 168.995 49.2548 168.995 48.1H163.995ZM166.516 53.816C168.147 55.0119 170.318 55.4 172.595 55.4V50.4C170.738 50.4 169.842 50.0548 169.473 49.784L166.516 53.816ZM172.595 55.4H192.695V50.4H172.595V55.4ZM192.695 55.4C193.143 55.4 193.403 55.4548 193.529 55.4967C193.64 55.5336 193.599 55.5432 193.526 55.4609L197.263 52.1391C196.039 50.7624 194.268 50.4 192.695 50.4V55.4ZM193.734 55.6685C193.651 55.5954 193.661 55.555 193.698 55.6656C193.74 55.7914 193.795 56.0511 193.795 56.5H198.795C198.795 54.9261 198.432 53.1552 197.055 51.9315L193.734 55.6685ZM193.795 56.5V68.4H198.795V56.5H193.795ZM193.795 68.4C193.795 69.3271 193.57 69.4887 193.627 69.4322L197.162 72.9678C198.419 71.7113 198.795 70.0062 198.795 68.4H193.795ZM193.627 69.4322C193.718 69.3407 193.756 69.3595 193.609 69.403C193.454 69.4489 193.165 69.5 192.695 69.5V74.5C194.2 74.5 195.927 74.2027 197.162 72.9678L193.627 69.4322ZM208.388 71.2L206.519 72.8609L206.617 72.9708L206.727 73.0685L208.388 71.2ZM208.388 0.899997L206.62 -0.867769L206.62 -0.867768L208.388 0.899997ZM229.388 0.899997L227.519 2.56091L227.617 2.67082L227.727 2.76852L229.388 0.899997ZM230.288 26.6H227.788V29.1H230.288V26.6ZM234.288 26.6V29.1H235.916L236.574 27.6108L234.288 26.6ZM244.588 3.3L246.874 4.31079L246.897 4.25894L246.918 4.20611L244.588 3.3ZM246.488 0.799999L247.747 2.95945L247.812 2.92169L247.874 2.88012L246.488 0.799999ZM267.288 0.899997L265.207 2.28674L265.246 2.34449L265.288 2.4L267.288 0.899997ZM267.188 3.3L269.478 4.30256L269.478 4.30205L267.188 3.3ZM256.988 26.6L254.697 25.5974L253.25 28.9034L256.854 29.0964L256.988 26.6ZM265.888 30.6L264.022 32.264L264.045 32.2906L264.07 32.3166L265.888 30.6ZM268.388 71.2L270.155 72.9678L270.155 72.9678L268.388 71.2ZM247.488 71.2L245.619 72.8609L245.717 72.9708L245.827 73.0685L247.488 71.2ZM230.288 45.5V43H227.788V45.5H230.288ZM229.388 71.2L227.62 69.4322L227.62 69.4322L229.388 71.2ZM226.688 69.5H211.188V74.5H226.688V69.5ZM211.188 69.5C210.72 69.5 210.412 69.4497 210.224 69.3962C210.044 69.3447 210.015 69.3022 210.048 69.3315L206.727 73.0685C207.985 74.1873 209.645 74.5 211.188 74.5V69.5ZM210.256 69.5391C210.285 69.5721 210.243 69.5434 210.191 69.3632C210.138 69.1759 210.088 68.8675 210.088 68.4H205.088C205.088 69.9422 205.4 71.6023 206.519 72.8609L210.256 69.5391ZM210.088 68.4V3.6H205.088V68.4H210.088ZM210.088 3.6C210.088 3.12909 210.139 2.8402 210.184 2.68522C210.228 2.53851 210.247 2.57627 210.155 2.66776L206.62 -0.867768C205.385 0.367197 205.088 2.0948 205.088 3.6H210.088ZM210.155 2.66776C210.099 2.72427 210.26 2.5 211.188 2.5V-2.5C209.581 -2.5 207.876 -2.12427 206.62 -0.867769L210.155 2.66776ZM211.188 2.5H226.688V-2.5H211.188V2.5ZM226.688 2.5C227.136 2.5 227.396 2.55476 227.522 2.59671C227.632 2.63355 227.592 2.64317 227.519 2.56091L231.256 -0.76091C230.032 -2.13759 228.261 -2.5 226.688 -2.5V2.5ZM227.727 2.76852C227.644 2.6954 227.654 2.65502 227.691 2.76557C227.733 2.8914 227.788 3.15109 227.788 3.6H232.788C232.788 2.02613 232.425 0.255188 231.048 -0.968524L227.727 2.76852ZM227.788 3.6V26.6H232.788V3.6H227.788ZM230.288 29.1H234.288V24.1H230.288V29.1ZM236.574 27.6108L246.874 4.31079L242.301 2.28921L232.001 25.5892L236.574 27.6108ZM246.918 4.20611C247.258 3.33034 247.595 3.04836 247.747 2.95945L245.228 -1.35945C243.78 -0.51503 242.85 0.86965 242.257 2.39388L246.918 4.20611ZM247.874 2.88012C248.152 2.69514 248.66 2.5 249.588 2.5V-2.5C247.981 -2.5 246.423 -2.16181 245.101 -1.28013L247.874 2.88012ZM249.588 2.5H264.988V-2.5H249.588V2.5ZM264.988 2.5C265.163 2.5 265.291 2.51173 265.379 2.52565C265.467 2.53958 265.503 2.55377 265.502 2.5531C265.498 2.55169 265.454 2.53391 265.392 2.4857C265.327 2.4357 265.262 2.36801 265.207 2.28674L269.368 -0.48675C268.284 -2.11271 266.461 -2.5 264.988 -2.5V2.5ZM265.288 2.4C265.192 2.27321 265.13 2.13712 265.096 2.01289C265.063 1.8941 265.064 1.81457 265.065 1.79592C265.065 1.77945 265.066 1.81205 265.041 1.90315C265.017 1.99352 264.973 2.1239 264.897 2.29794L269.478 4.30205C270.031 3.03811 270.542 1.07207 269.287 -0.600007L265.288 2.4ZM264.897 2.29743L254.697 25.5974L259.278 27.6026L269.478 4.30256L264.897 2.29743ZM256.854 29.0964C260.017 29.2659 262.325 30.3614 264.022 32.264L267.753 28.936C265.05 25.9053 261.425 24.3341 257.121 24.1036L256.854 29.0964ZM264.07 32.3166C265.809 34.1581 266.788 36.6954 266.788 40.2H271.788C271.788 35.7046 270.499 31.8419 267.705 28.8834L264.07 32.3166ZM266.788 40.2V68.4H271.788V40.2H266.788ZM266.788 68.4C266.788 69.3271 266.563 69.4887 266.62 69.4322L270.155 72.9678C271.412 71.7113 271.788 70.0062 271.788 68.4H266.788ZM266.62 69.4322C266.711 69.3407 266.749 69.3595 266.602 69.403C266.447 69.4489 266.158 69.5 265.688 69.5V74.5C267.193 74.5 268.92 74.2027 270.155 72.9678L266.62 69.4322ZM265.688 69.5H250.288V74.5H265.688V69.5ZM250.288 69.5C249.82 69.5 249.512 69.4497 249.324 69.3962C249.144 69.3447 249.115 69.3022 249.148 69.3315L245.827 73.0685C247.085 74.1873 248.745 74.5 250.288 74.5V69.5ZM249.356 69.5391C249.385 69.572 249.343 69.5434 249.291 69.3632C249.238 69.1759 249.188 68.8675 249.188 68.4H244.188C244.188 69.9422 244.5 71.6023 245.619 72.8609L249.356 69.5391ZM249.188 68.4V48.9H244.188V68.4H249.188ZM249.188 48.9C249.188 47.4256 248.814 45.9295 247.756 44.7391L244.019 48.0609C244.028 48.0705 244.188 48.241 244.188 48.9H249.188ZM247.756 44.7391C246.606 43.4448 245.021 43 243.488 43V48C243.793 48 243.95 48.0436 244.01 48.0658C244.054 48.0825 244.04 48.0842 244.019 48.0609L247.756 44.7391ZM243.488 43H230.288V48H243.488V43ZM227.788 45.5V68.4H232.788V45.5H227.788ZM227.788 68.4C227.788 69.3271 227.563 69.4887 227.62 69.4322L231.155 72.9678C232.412 71.7113 232.788 70.0062 232.788 68.4H227.788ZM227.62 69.4322C227.711 69.3407 227.749 69.3595 227.602 69.403C227.447 69.4489 227.158 69.5 226.688 69.5V74.5C228.193 74.5 229.92 74.2027 231.155 72.9678L227.62 69.4322ZM313.073 67L311.473 68.9206L311.481 68.927L311.489 68.9335L313.073 67ZM313.073 5L311.489 3.06652L311.481 3.07295L311.473 3.07945L313.073 5ZM359.373 0.899997L357.505 2.56091L357.603 2.67082L357.713 2.76852L359.373 0.899997ZM331.273 20.6L332.835 22.5522L332.874 22.5214L332.911 22.4892L331.273 20.6ZM330.873 51.9L329.031 53.5893L329.067 53.6294L329.106 53.6678L330.873 51.9ZM344.073 53.1V55.6H346.573V53.1H344.073ZM365.873 34.8L364.005 36.4609L364.103 36.5708L364.213 36.6685L365.873 34.8ZM365.873 71.2L367.641 72.9678L367.641 72.9678L365.873 71.2ZM363.173 69.5H331.673V74.5H363.173V69.5ZM331.673 69.5C323.6 69.5 318.082 67.8731 314.658 65.0665L311.489 68.9335C316.198 72.7936 323.08 74.5 331.673 74.5V69.5ZM314.674 65.0794C311.418 62.3666 309.573 58.0534 309.573 51.6H304.573C304.573 59.0133 306.728 64.9667 311.473 68.9206L314.674 65.0794ZM309.573 51.6V20.4H304.573V51.6H309.573ZM309.573 20.4C309.573 13.9466 311.418 9.63341 314.674 6.92055L311.473 3.07945C306.728 7.03325 304.573 12.9867 304.573 20.4H309.573ZM314.658 6.93348C318.082 4.12694 323.6 2.5 331.673 2.5V-2.5C323.08 -2.5 316.198 -0.793615 311.489 3.06652L314.658 6.93348ZM331.673 2.5H356.673V-2.5H331.673V2.5ZM356.673 2.5C357.122 2.5 357.382 2.55476 357.508 2.59671C357.618 2.63356 357.578 2.64317 357.505 2.56091L361.242 -0.760914C360.018 -2.13759 358.247 -2.5 356.673 -2.5V2.5ZM357.713 2.76852C357.63 2.6954 357.64 2.65502 357.677 2.76557C357.719 2.8914 357.773 3.15109 357.773 3.6H362.773C362.773 2.02613 362.411 0.255188 361.034 -0.968524L357.713 2.76852ZM357.773 3.6V15.7H362.773V3.6H357.773ZM357.773 15.7C357.773 16.6271 357.549 16.7887 357.606 16.7322L361.141 20.2678C362.398 19.0113 362.773 17.3062 362.773 15.7H357.773ZM357.606 16.7322C357.697 16.6407 357.735 16.6595 357.588 16.703C357.433 16.7489 357.144 16.8 356.673 16.8V21.8C358.179 21.8 359.906 21.5027 361.141 20.2678L357.606 16.7322ZM356.673 16.8H335.873V21.8H356.673V16.8ZM335.873 16.8C333.527 16.8 331.286 17.281 329.636 18.7108L332.911 22.4892C333.261 22.1857 334.086 21.8 335.873 21.8V16.8ZM329.712 18.6478C327.949 20.0579 327.273 22.1214 327.273 24.3H332.273C332.273 23.1452 332.598 22.7421 332.835 22.5522L329.712 18.6478ZM327.273 24.3V48.2H332.273V24.3H327.273ZM327.273 48.2C327.273 50.1683 327.697 52.1351 329.031 53.5893L332.716 50.2107C332.583 50.0649 332.273 49.565 332.273 48.2H327.273ZM329.106 53.6678C330.522 55.0837 332.419 55.6 334.373 55.6V50.6C333.261 50.6 332.825 50.3163 332.641 50.1322L329.106 53.6678ZM334.373 55.6H344.073V50.6H334.373V55.6ZM346.573 53.1V37.5H341.573V53.1H346.573ZM346.573 37.5C346.573 37.0291 346.625 36.7402 346.67 36.5852C346.714 36.4385 346.733 36.4763 346.641 36.5678L343.106 33.0322C341.871 34.2672 341.573 35.9948 341.573 37.5H346.573ZM346.641 36.5678C346.585 36.6243 346.746 36.4 347.673 36.4V31.4C346.067 31.4 344.362 31.7757 343.106 33.0322L346.641 36.5678ZM347.673 36.4H363.173V31.4H347.673V36.4ZM363.173 36.4C363.622 36.4 363.882 36.4548 364.008 36.4967C364.118 36.5336 364.078 36.5432 364.005 36.4609L367.742 33.1391C366.518 31.7624 364.747 31.4 363.173 31.4V36.4ZM364.213 36.6685C364.13 36.5954 364.14 36.555 364.177 36.6656C364.219 36.7914 364.273 37.0511 364.273 37.5H369.273C369.273 35.9261 368.911 34.1552 367.534 32.9315L364.213 36.6685ZM364.273 37.5V68.4H369.273V37.5H364.273ZM364.273 68.4C364.273 69.3271 364.049 69.4887 364.106 69.4322L367.641 72.9678C368.898 71.7113 369.273 70.0062 369.273 68.4H364.273ZM364.106 69.4322C364.197 69.3407 364.235 69.3595 364.088 69.403C363.933 69.4489 363.644 69.5 363.173 69.5V74.5C364.679 74.5 366.406 74.2027 367.641 72.9678L364.106 69.4322ZM401.574 18V15.5H399.074V18H401.574ZM401.574 30.8H399.074V33.3H401.574V30.8ZM412.574 29.5L414.63 30.923L414.654 30.8879L414.677 30.8519L412.574 29.5ZM412.574 19.4L410.471 20.7519L410.494 20.7879L410.519 20.823L412.574 19.4ZM379.774 71.2L377.906 72.8609L378.003 72.9708L378.113 73.0685L379.774 71.2ZM379.774 0.899997L378.006 -0.867769L378.006 -0.867768L379.774 0.899997ZM431.274 4.7L429.41 6.36582L429.429 6.38673L429.448 6.40721L431.274 4.7ZM434.274 28.5L431.98 27.506L431.972 27.525L431.964 27.5441L434.274 28.5ZM429.974 32.7L429.007 30.3945L420.122 34.1207L429.698 35.1847L429.974 32.7ZM438.674 37.1L436.787 38.7392L436.799 38.7532L436.811 38.767L438.674 37.1ZM441.174 71.2L442.942 72.9678L442.942 72.9678L441.174 71.2ZM420.174 71.2L418.306 72.8609L418.403 72.9708L418.513 73.0685L420.174 71.2ZM418.474 49.9L416.452 51.3704L416.529 51.4757L416.616 51.5724L418.474 49.9ZM401.574 48.8V46.3H399.074V48.8H401.574ZM400.674 71.2L398.906 69.4322L398.906 69.4322L400.674 71.2ZM399.074 18V30.8H404.074V18H399.074ZM401.574 33.3H409.074V28.3H401.574V33.3ZM409.074 33.3C411.093 33.3 413.324 32.8085 414.63 30.923L410.519 28.077C410.56 28.0176 410.571 28.06 410.379 28.1314C410.16 28.2127 409.752 28.3 409.074 28.3V33.3ZM414.677 30.8519C415.585 29.4403 415.974 27.815 415.974 26.1H410.974C410.974 27.0517 410.764 27.693 410.471 28.1481L414.677 30.8519ZM415.974 26.1V22.7H410.974V26.1H415.974ZM415.974 22.7C415.974 20.9931 415.587 19.3604 414.63 17.977L410.519 20.823C410.761 21.1729 410.974 21.7402 410.974 22.7H415.974ZM414.677 18.0481C413.4 16.0608 411.157 15.5 409.074 15.5V20.5C409.735 20.5 410.122 20.5916 410.321 20.6712C410.413 20.7082 410.454 20.7381 410.465 20.7469C410.471 20.7516 410.473 20.7535 410.472 20.7526C410.471 20.7517 410.471 20.751 410.471 20.7519L414.677 18.0481ZM409.074 15.5H401.574V20.5H409.074V15.5ZM397.974 69.5H382.574V74.5H397.974V69.5ZM382.574 69.5C382.107 69.5 381.798 69.4497 381.611 69.3962C381.431 69.3447 381.402 69.3022 381.435 69.3315L378.113 73.0685C379.372 74.1873 381.032 74.5 382.574 74.5V69.5ZM381.643 69.5391C381.672 69.5721 381.63 69.5434 381.578 69.3632C381.525 69.1759 381.474 68.8675 381.474 68.4H376.474C376.474 69.9422 376.787 71.6023 377.906 72.8609L381.643 69.5391ZM381.474 68.4V3.6H376.474V68.4H381.474ZM381.474 3.6C381.474 3.12909 381.525 2.8402 381.571 2.68522C381.615 2.53851 381.633 2.57627 381.542 2.66776L378.006 -0.867768C376.771 0.367197 376.474 2.0948 376.474 3.6H381.474ZM381.542 2.66776C381.485 2.72427 381.647 2.5 382.574 2.5V-2.5C380.968 -2.5 379.263 -2.12427 378.006 -0.867769L381.542 2.66776ZM382.574 2.5H415.874V-2.5H382.574V2.5ZM415.874 2.5C423.146 2.5 427.345 4.05437 429.41 6.36582L433.138 3.03417C429.604 -0.921047 423.536 -2.5 415.874 -2.5V2.5ZM429.448 6.40721C431.807 8.93098 433.074 12.2821 433.074 16.7H438.074C438.074 11.2512 436.475 6.60234 433.101 2.99279L429.448 6.40721ZM433.074 16.7V21.3H438.074V16.7H433.074ZM433.074 21.3C433.074 23.8514 432.678 25.8954 431.98 27.506L436.568 29.494C437.604 27.1046 438.074 24.3486 438.074 21.3H433.074ZM431.964 27.5441C431.436 28.8217 430.514 29.7629 429.007 30.3945L430.941 35.0055C433.568 33.9038 435.513 32.0449 436.584 29.4559L431.964 27.5441ZM429.698 35.1847C432.728 35.5214 435.033 36.7198 436.787 38.7392L440.562 35.4608C437.916 32.4136 434.42 30.6786 430.25 30.2153L429.698 35.1847ZM436.811 38.767C438.577 40.7406 439.574 43.464 439.574 47.2H444.574C444.574 42.536 443.305 38.5261 440.537 35.433L436.811 38.767ZM439.574 47.2V68.4H444.574V47.2H439.574ZM439.574 68.4C439.574 69.3271 439.35 69.4887 439.406 69.4322L442.942 72.9678C444.198 71.7113 444.574 70.0062 444.574 68.4H439.574ZM439.406 69.4322C439.498 69.3407 439.536 69.3595 439.389 69.403C439.234 69.4489 438.945 69.5 438.474 69.5V74.5C439.979 74.5 441.707 74.2027 442.942 72.9678L439.406 69.4322ZM438.474 69.5H422.974V74.5H438.474V69.5ZM422.974 69.5C422.507 69.5 422.198 69.4497 422.011 69.3962C421.831 69.3447 421.802 69.3022 421.835 69.3315L418.513 73.0685C419.772 74.1873 421.432 74.5 422.974 74.5V69.5ZM422.043 69.5391C422.072 69.572 422.03 69.5434 421.978 69.3632C421.925 69.1759 421.874 68.8675 421.874 68.4H416.874C416.874 69.9422 417.187 71.6023 418.306 72.8609L422.043 69.5391ZM421.874 68.4V53.1H416.874V68.4H421.874ZM421.874 53.1C421.874 51.3841 421.539 49.5684 420.332 48.2276L416.616 51.5724C416.606 51.5612 416.673 51.6278 416.743 51.8769C416.814 52.132 416.874 52.5264 416.874 53.1H421.874ZM420.496 48.4296C419.28 46.7568 417.326 46.3 415.574 46.3V51.3C416.072 51.3 416.343 51.3672 416.463 51.4125C416.557 51.4482 416.51 51.4502 416.452 51.3704L420.496 48.4296ZM415.574 46.3H401.574V51.3H415.574V46.3ZM399.074 48.8V68.4H404.074V48.8H399.074ZM399.074 68.4C399.074 69.3271 398.85 69.4887 398.906 69.4322L402.442 72.9678C403.698 71.7113 404.074 70.0062 404.074 68.4H399.074ZM398.906 69.4322C398.998 69.3407 399.036 69.3595 398.889 69.403C398.734 69.4489 398.445 69.5 397.974 69.5V74.5C399.479 74.5 401.207 74.2027 402.442 72.9678L398.906 69.4322ZM479.391 21L477.106 19.9846L477.046 20.12L477.002 20.2615L479.391 21ZM474.691 36.2L472.302 35.4615L471.301 38.7H474.691V36.2ZM490.391 36.2V38.7H493.78L492.779 35.4615L490.391 36.2ZM485.691 21L488.079 20.2615L488.035 20.12L487.975 19.9847L485.691 21ZM484.791 19.7L483.023 21.4678L483.121 21.5657L483.229 21.6522L484.791 19.7ZM480.191 19.7L478.629 17.7478L478.521 17.8343L478.423 17.9322L480.191 19.7ZM472.791 71.2L471.023 69.4322L471.023 69.4322L472.791 71.2ZM452.591 71.2L450.722 72.8609L450.82 72.9708L450.93 73.0685L452.591 71.2ZM452.691 35.1L450.269 34.4791L450.261 34.5084L450.255 34.5378L452.691 35.1ZM455.691 26L458.024 26.8974L458.025 26.8947L455.691 26ZM464.391 3.3L466.725 4.19469L466.737 4.16352L466.748 4.13205L464.391 3.3ZM466.191 0.799999L464.88 -1.32915L464.842 -1.30533L464.804 -1.28013L466.191 0.799999ZM499.491 0.799999L498.104 2.88012L498.142 2.90533L498.18 2.92915L499.491 0.799999ZM501.391 3.3L499.033 4.13204L499.044 4.16352L499.056 4.19469L501.391 3.3ZM510.091 26L507.756 26.8947L507.757 26.8974L510.091 26ZM512.991 35.1L510.555 35.6621L510.561 35.6916L510.569 35.7209L512.991 35.1ZM513.091 71.2L514.858 72.9678L514.858 72.9678L513.091 71.2ZM492.291 71.2L490.523 72.9678L490.621 73.0657L490.729 73.1522L492.291 71.2ZM491.391 54.4H493.891V51.9H491.391V54.4ZM473.691 54.4V51.9H471.191V54.4H473.691ZM477.002 20.2615L472.302 35.4615L477.079 36.9385L481.779 21.7385L477.002 20.2615ZM474.691 38.7H490.391V33.7H474.691V38.7ZM492.779 35.4615L488.079 20.2615L483.302 21.7385L488.002 36.9385L492.779 35.4615ZM487.975 19.9847C487.625 19.1978 487.122 18.3632 486.352 17.7478L483.229 21.6522C483.168 21.6034 483.167 21.586 483.21 21.648C483.253 21.7095 483.321 21.8249 483.406 22.0153L487.975 19.9847ZM486.558 17.9322C485.792 17.1661 484.809 16.8 483.791 16.8V21.8C483.709 21.8 483.573 21.7854 483.412 21.7212C483.249 21.6558 483.117 21.5615 483.023 21.4678L486.558 17.9322ZM483.791 16.8H481.291V21.8H483.791V16.8ZM481.291 16.8C480.283 16.8 479.374 17.1521 478.629 17.7478L481.752 21.6522C481.726 21.673 481.665 21.7148 481.57 21.7495C481.473 21.7849 481.375 21.8 481.291 21.8V16.8ZM478.423 17.9322C477.835 18.5198 477.419 19.2806 477.106 19.9846L481.675 22.0153C481.776 21.7895 481.859 21.6346 481.92 21.5352C481.984 21.4311 482.001 21.4249 481.958 21.4678L478.423 17.9322ZM471.191 68.4C471.191 69.3271 470.966 69.4887 471.023 69.4322L474.558 72.9678C475.815 71.7113 476.191 70.0062 476.191 68.4H471.191ZM471.023 69.4322C471.114 69.3407 471.152 69.3595 471.005 69.403C470.85 69.4489 470.562 69.5 470.091 69.5V74.5C471.596 74.5 473.323 74.2027 474.558 72.9678L471.023 69.4322ZM470.091 69.5H455.391V74.5H470.091V69.5ZM455.391 69.5C454.923 69.5 454.615 69.4497 454.427 69.3962C454.247 69.3447 454.219 69.3022 454.252 69.3315L450.93 73.0685C452.188 74.1873 453.848 74.5 455.391 74.5V69.5ZM454.459 69.5391C454.488 69.5721 454.446 69.5434 454.394 69.3632C454.341 69.1759 454.291 68.8675 454.291 68.4H449.291C449.291 69.9422 449.603 71.6023 450.722 72.8609L454.459 69.5391ZM454.291 68.4V42H449.291V68.4H454.291ZM454.291 42C454.291 40.24 454.556 38.1349 455.127 35.6621L450.255 34.5378C449.625 37.2651 449.291 39.76 449.291 42H454.291ZM455.112 35.7209C455.748 33.2426 456.713 30.3053 458.024 26.8974L453.357 25.1026C452.001 28.6281 450.967 31.7574 450.269 34.4791L455.112 35.7209ZM458.025 26.8947L466.725 4.19469L462.056 2.40531L453.356 25.1053L458.025 26.8947ZM466.748 4.13205C467.014 3.37936 467.33 3.04528 467.577 2.88013L464.804 -1.28013C463.452 -0.378618 462.567 0.953967 462.033 2.46795L466.748 4.13205ZM467.501 2.92914C467.869 2.70262 468.48 2.5 469.491 2.5V-2.5C467.835 -2.5 466.246 -2.16929 464.88 -1.32915L467.501 2.92914ZM469.491 2.5H496.391V-2.5H469.491V2.5ZM496.391 2.5C497.318 2.5 497.826 2.69514 498.104 2.88012L500.877 -1.28012C499.555 -2.16181 497.997 -2.5 496.391 -2.5V2.5ZM498.18 2.92915C498.475 3.11055 498.788 3.43627 499.033 4.13204L503.748 2.46795C503.194 0.897055 502.239 -0.443888 500.801 -1.32915L498.18 2.92915ZM499.056 4.19469L507.756 26.8947L512.425 25.1053L503.725 2.40531L499.056 4.19469ZM507.757 26.8974C509.064 30.2938 509.989 33.2106 510.555 35.6621L515.427 34.5378C514.792 31.7894 513.784 28.6396 512.424 25.1026L507.757 26.8974ZM510.569 35.7209C511.2 38.1824 511.491 40.2668 511.491 42H516.491C516.491 39.7332 516.114 37.2176 515.412 34.4791L510.569 35.7209ZM511.491 42V68.4H516.491V42H511.491ZM511.491 68.4C511.491 69.3271 511.266 69.4887 511.323 69.4322L514.858 72.9678C516.115 71.7113 516.491 70.0062 516.491 68.4H511.491ZM511.323 69.4322C511.414 69.3407 511.452 69.3595 511.305 69.403C511.15 69.4489 510.862 69.5 510.391 69.5V74.5C511.896 74.5 513.623 74.2027 514.858 72.9678L511.323 69.4322ZM510.391 69.5H495.291V74.5H510.391V69.5ZM495.291 69.5C494.224 69.5 493.887 69.2758 493.852 69.2478L490.729 73.1522C492.027 74.1908 493.69 74.5 495.291 74.5V69.5ZM494.058 69.4322C494.115 69.4887 493.891 69.3271 493.891 68.4H488.891C488.891 70.0062 489.266 71.7113 490.523 72.9678L494.058 69.4322ZM493.891 68.4V54.4H488.891V68.4H493.891ZM491.391 51.9H473.691V56.9H491.391V51.9ZM471.191 54.4V68.4H476.191V54.4H471.191ZM586.238 61.5L583.892 60.6357L583.885 60.6535L583.879 60.6713L586.238 61.5ZM581.438 67.9L582.956 69.8859L582.965 69.8795L581.438 67.9ZM541.438 72L542.044 69.5746L542.044 69.5746L541.438 72ZM531.938 67.9L530.383 69.8578L530.414 69.8828L530.447 69.9069L531.938 67.9ZM527.138 61.5L524.772 62.3092L524.785 62.3472L524.799 62.3847L527.138 61.5ZM526.638 0.899997L524.87 -0.867769L524.87 -0.867768L526.638 0.899997ZM547.838 0.899997L545.969 2.56091L546.067 2.67082L546.177 2.76852L547.838 0.899997ZM550.238 52.6L548.532 54.4276L548.565 54.4591L548.6 54.4892L550.238 52.6ZM563.738 52.6L565.375 54.4892L565.41 54.4591L565.443 54.4276L563.738 52.6ZM566.038 0.899997L564.27 -0.867769L564.27 -0.867766L566.038 0.899997ZM586.738 0.899997L584.869 2.56091L584.967 2.67082L585.077 2.76852L586.738 0.899997ZM585.138 53.1C585.138 55.9114 584.71 58.414 583.892 60.6357L588.583 62.3643C589.632 59.5193 590.138 56.422 590.138 53.1H585.138ZM583.879 60.6713C583.192 62.6257 581.911 64.377 579.91 65.9205L582.965 69.8795C585.63 67.823 587.55 65.3076 588.596 62.3287L583.879 60.6713ZM579.919 65.9141C578.016 67.3696 575.236 68.6235 571.431 69.5746L572.644 74.4254C576.839 73.3765 580.326 71.8971 582.956 69.8859L579.919 65.9141ZM571.431 69.5746C567.702 70.5069 562.825 71 556.738 71V76C563.05 76 568.373 75.4931 572.644 74.4254L571.431 69.5746ZM556.738 71C550.65 71 545.773 70.5069 542.044 69.5746L540.831 74.4254C545.102 75.4931 550.425 76 556.738 76V71ZM542.044 69.5746C538.24 68.6236 535.411 67.3662 533.428 65.8931L530.447 69.9069C533.13 71.9005 536.635 73.3764 540.831 74.4254L542.044 69.5746ZM533.492 65.9422C531.543 64.3945 530.234 62.6197 529.476 60.6153L524.799 62.3847C525.908 65.3137 527.798 67.8055 530.383 69.8578L533.492 65.9422ZM529.503 60.6908C528.737 58.4527 528.338 55.9307 528.338 53.1H523.338C523.338 56.4026 523.804 59.4806 524.772 62.3092L529.503 60.6908ZM528.338 53.1V3.6H523.338V53.1H528.338ZM528.338 3.6C528.338 3.12909 528.389 2.8402 528.434 2.68522C528.478 2.53851 528.497 2.57627 528.405 2.66776L524.87 -0.867768C523.635 0.367197 523.338 2.0948 523.338 3.6H528.338ZM528.405 2.66776C528.349 2.72427 528.51 2.5 529.438 2.5V-2.5C527.831 -2.5 526.126 -2.12427 524.87 -0.867769L528.405 2.66776ZM529.438 2.5H545.137V-2.5H529.438V2.5ZM545.137 2.5C545.586 2.5 545.846 2.55476 545.972 2.59671C546.082 2.63356 546.042 2.64317 545.969 2.56091L549.706 -0.76091C548.482 -2.13759 546.711 -2.5 545.137 -2.5V2.5ZM546.177 2.76852C546.094 2.6954 546.104 2.65502 546.141 2.76557C546.183 2.8914 546.238 3.15109 546.238 3.6H551.238C551.238 2.02613 550.875 0.255188 549.498 -0.968524L546.177 2.76852ZM546.238 3.6V49.2H551.238V3.6H546.238ZM546.238 49.2C546.238 51.2464 547.04 53.0354 548.532 54.4276L551.943 50.7724C551.435 50.298 551.238 49.8203 551.238 49.2H546.238ZM548.6 54.4892C549.591 55.3477 550.91 55.7816 552.186 56.0292C553.519 56.2877 555.118 56.4 556.938 56.4V51.4C555.29 51.4 554.04 51.2956 553.139 51.1208C552.692 51.0341 552.371 50.9376 552.151 50.8492C551.928 50.7593 551.861 50.6987 551.875 50.7108L548.6 54.4892ZM556.938 56.4C558.788 56.4 560.41 56.288 561.757 56.0305C563.043 55.7847 564.378 55.3529 565.375 54.4892L562.1 50.7108C562.119 50.6949 562.054 50.7551 561.826 50.8459C561.602 50.935 561.274 51.0322 560.818 51.1195C559.898 51.2954 558.62 51.4 556.938 51.4V56.4ZM565.443 54.4276C566.935 53.0354 567.738 51.2464 567.738 49.2H562.738C562.738 49.8203 562.54 50.298 562.032 50.7724L565.443 54.4276ZM567.738 49.2V3.6H562.738V49.2H567.738ZM567.738 3.6C567.738 3.12909 567.789 2.8402 567.834 2.68522C567.878 2.53851 567.897 2.57626 567.805 2.66776L564.27 -0.867766C563.035 0.367199 562.738 2.0948 562.738 3.6H567.738ZM567.805 2.66776C567.749 2.72427 567.91 2.5 568.838 2.5V-2.5C567.231 -2.5 565.526 -2.12427 564.27 -0.867769L567.805 2.66776ZM568.838 2.5H584.038V-2.5H568.838V2.5ZM584.038 2.5C584.486 2.5 584.746 2.55476 584.872 2.59671C584.982 2.63356 584.942 2.64317 584.869 2.56091L588.606 -0.760914C587.382 -2.13759 585.611 -2.5 584.038 -2.5V2.5ZM585.077 2.76852C584.994 2.6954 585.004 2.65502 585.041 2.76557C585.083 2.8914 585.138 3.15109 585.138 3.6H590.138C590.138 2.02613 589.775 0.255188 588.398 -0.968524L585.077 2.76852ZM585.138 3.6V53.1H590.138V3.6H585.138ZM601.747 71.2L599.878 72.8609L599.976 72.9708L600.086 73.0685L601.747 71.2ZM601.747 0.899997L599.979 -0.867769L599.979 -0.867768L601.747 0.899997ZM653.647 0.899997L651.778 2.56091L651.876 2.67082L651.986 2.76852L653.647 0.899997ZM623.347 18.9V16.4H620.847V18.9H623.347ZM623.347 26.6H620.847V29.1H623.347V26.6ZM645.547 27.5L643.678 29.1609L643.776 29.2708L643.886 29.3685L645.547 27.5ZM645.547 43.7L643.779 41.9322L645.547 43.7ZM623.347 44.5V42H620.847V44.5H623.347ZM623.347 53.1H620.847V55.6H623.347V53.1ZM653.647 54L651.778 55.6609L651.876 55.7708L651.986 55.8685L653.647 54ZM653.647 71.2L655.415 72.9678L655.415 72.9678L653.647 71.2ZM650.947 69.5H604.547V74.5H650.947V69.5ZM604.547 69.5C604.079 69.5 603.771 69.4497 603.584 69.3962C603.403 69.3447 603.375 69.3022 603.408 69.3315L600.086 73.0685C601.345 74.1873 603.005 74.5 604.547 74.5V69.5ZM603.615 69.5391C603.645 69.5721 603.602 69.5434 603.551 69.3632C603.497 69.1759 603.447 68.8675 603.447 68.4H598.447C598.447 69.9422 598.76 71.6023 599.878 72.8609L603.615 69.5391ZM603.447 68.4V3.6H598.447V68.4H603.447ZM603.447 3.6C603.447 3.12909 603.498 2.8402 603.544 2.68522C603.587 2.53851 603.606 2.57627 603.515 2.66776L599.979 -0.867768C598.744 0.367197 598.447 2.0948 598.447 3.6H603.447ZM603.515 2.66776C603.458 2.72427 603.62 2.5 604.547 2.5V-2.5C602.941 -2.5 601.236 -2.12427 599.979 -0.867769L603.515 2.66776ZM604.547 2.5H650.947V-2.5H604.547V2.5ZM650.947 2.5C651.396 2.5 651.655 2.55476 651.781 2.59671C651.892 2.63356 651.851 2.64317 651.778 2.56091L655.515 -0.760914C654.292 -2.13759 652.521 -2.5 650.947 -2.5V2.5ZM651.986 2.76852C651.904 2.6954 651.913 2.65502 651.95 2.76557C651.992 2.8914 652.047 3.15109 652.047 3.6H657.047C657.047 2.02613 656.684 0.255188 655.308 -0.968524L651.986 2.76852ZM652.047 3.6V15.3H657.047V3.6H652.047ZM652.047 15.3C652.047 16.2271 651.823 16.3887 651.879 16.3322L655.415 19.8678C656.671 18.6113 657.047 16.9062 657.047 15.3H652.047ZM651.879 16.3322C651.971 16.2407 652.008 16.2595 651.862 16.303C651.707 16.3489 651.418 16.4 650.947 16.4V21.4C652.452 21.4 654.18 21.1027 655.415 19.8678L651.879 16.3322ZM650.947 16.4H623.347V21.4H650.947V16.4ZM620.847 18.9V26.6H625.847V18.9H620.847ZM623.347 29.1H642.847V24.1H623.347V29.1ZM642.847 29.1C643.296 29.1 643.555 29.1548 643.681 29.1967C643.792 29.2336 643.751 29.2432 643.678 29.1609L647.415 25.8391C646.192 24.4624 644.421 24.1 642.847 24.1V29.1ZM643.886 29.3685C643.804 29.2954 643.813 29.255 643.85 29.3656C643.892 29.4914 643.947 29.7511 643.947 30.2H648.947C648.947 28.6261 648.584 26.8552 647.208 25.6315L643.886 29.3685ZM643.947 30.2V40.9H648.947V30.2H643.947ZM643.947 40.9C643.947 41.8271 643.723 41.9887 643.779 41.9322L647.315 45.4678C648.571 44.2113 648.947 42.5062 648.947 40.9H643.947ZM643.779 41.9322C643.871 41.8407 643.908 41.8595 643.762 41.903C643.607 41.9489 643.318 42 642.847 42V47C644.352 47 646.08 46.7027 647.315 45.4678L643.779 41.9322ZM642.847 42H623.347V47H642.847V42ZM620.847 44.5V53.1H625.847V44.5H620.847ZM623.347 55.6H650.947V50.6H623.347V55.6ZM650.947 55.6C651.396 55.6 651.655 55.6548 651.781 55.6967C651.892 55.7336 651.851 55.7432 651.778 55.6609L655.515 52.3391C654.292 50.9624 652.521 50.6 650.947 50.6V55.6ZM651.986 55.8685C651.904 55.7954 651.913 55.755 651.95 55.8656C651.992 55.9914 652.047 56.2511 652.047 56.7H657.047C657.047 55.1261 656.684 53.3552 655.308 52.1315L651.986 55.8685ZM652.047 56.7V68.4H657.047V56.7H652.047ZM652.047 68.4C652.047 69.3271 651.823 69.4887 651.879 69.4322L655.415 72.9678C656.671 71.7113 657.047 70.0062 657.047 68.4H652.047ZM651.879 69.4322C651.971 69.3407 652.008 69.3595 651.862 69.403C651.707 69.4489 651.418 69.5 650.947 69.5V74.5C652.452 74.5 654.18 74.2027 655.415 72.9678L651.879 69.4322Z" fill="#E0B107" mask="url(#path-1-outside-1_9_563)"/>
</svg>
